PathFileType	4	(X/Y/Z)	G:\Shared drives\HPL_Drive\Pi-Spi Study\20230118_AMCsubject1\Trimmed_right_flex_18001_rotated.trc
DataRate	CameraRate	NumFrames	NumMarkers	Units	OrigDataRate	OrigDataStartFrame	OrigNumFrames
200.00	200.00	       8	35	mm	200.00	1	       200
Frame#	Time	C7			Sternum			r_AMC1			r_AMC2			r_AMC3			l_AMC1			l_AMC2			l_AMC3			PX			T8			r_humerous			r_elbow_medial			r_elbow_lateral			r_forearm			r_wrist_radius			r_wrist_ulna			r_MCP_1			r_MCP_3			l_humerous			l_elbow_medial			l_elbow_lateral			l_forearm			l_wrist_radius			l_wrist_ulna			l_MCP_1			l_MCP_3			r_ASIS			r_PSIS			l_ASIS			l_PSIS			r_IC			l_IC			TS			AI			AA			
		X1	Y1	Z1	X2	Y2	Z2	X3	Y3	Z3	X4	Y4	Z4	X5	Y5	Z5	X6	Y6	Z6	X7	Y7	Z7	X8	Y8	Z8	X9	Y9	Z9	X10	Y10	Z10	X11	Y11	Z11	X12	Y12	Z12	X13	Y13	Z13	X14	Y14	Z14	X15	Y15	Z15	X16	Y16	Z16	X17	Y17	Z17	X18	Y18	Z18	X19	Y19	Z19	X20	Y20	Z20	X21	Y21	Z21	X22	Y22	Z22	X23	Y23	Z23	X24	Y24	Z24	X25	Y25	Z25	X26	Y26	Z26	X27	Y27	Z27	X28	Y28	Z28	X29	Y29	Z29	X30	Y30	Z30	X31	Y31	Z31	X32	Y32	Z32	X33	Y33	Z33	X34	Y34	Z34	X35	Y35	Z35	

1	0	180.3484	1371.5958	-233.4827	318.0587	1321.8686	-230.279	165.9533	1337.2543	-95.2352	198.51	1372.2007	-80.0721	193.0684	1393.3718	-119.4099	191.1474	1313.1725	-387.5199	225.8243	1307.1445	-425.1351	249.0637	1348.1351	-400.508	385.6192	1130.8644	-217.5146	152.0403	1188.3669	-226.5223	271.334	1474.3503	-76.854	375.956	1562.0636	-8.9043	318.7595	1577.6606	11.5359	343.3198	1741.9674	29.931	342.3545	1816.1659	15.1879	387.4988	1803.7961	35.8225	351.1067	1901.5698	19.8489	396.9117	1893.1567	33.1097	312.6013	1119.3698	-424.9469	261.4619	985.945	-376.3709	255.2182	979.8684	-429.8216	301.2502	834.6462	-467.7074	350.2578	767.3211	-476.1032	309.4588	759.5625	-459.4872	359.5489	689.4311	-490.2728	318.8398	683.8401	-467.6135	348.2224	910.5843	-74.2471	162.9967	929.9591	-161.8304	358.0548	892.6388	-331.6761	167.9364	922.7589	-263.2161	267.0251	971.9833	-48.2523	271.1188	939.0018	-372.1811	105.2625	1284.4191	-124.9493	141.8276	1207.9501	-67.6965	156.7922	1373.6626	-23.3349
2	0.005	180.3843	1371.6118	-233.4829	318.0838	1321.8798	-230.2977	165.9965	1337.257	-95.2377	198.5728	1372.2283	-80.0601	193.1147	1393.3801	-119.4255	191.1488	1313.1919	-387.5093	225.8023	1307.1583	-425.1435	249.0593	1348.1363	-400.5231	385.5661	1130.8544	-217.5011	152.0494	1188.3849	-226.5267	271.3606	1474.3639	-76.8739	375.9368	1562.0914	-8.8931	318.7812	1577.6774	11.5326	343.309	1741.9908	29.9096	342.329	1816.1852	15.159	387.5131	1803.8192	35.775	351.0104	1901.6271	19.8623	396.8561	1893.204	33.1193	312.6166	1119.3419	-424.9397	261.4808	985.9481	-376.3449	255.3753	980.2473	-429.7946	301.2579	834.6496	-467.6671	350.3147	767.2562	-476.0315	309.4747	759.5359	-459.4142	359.6186	689.6338	-490.887	318.917	683.8109	-467.5254	348.2521	910.5685	-74.2709	162.9827	929.9447	-161.8318	358.0185	892.6317	-331.6555	167.9124	922.7744	-263.204	267.0457	971.9682	-48.2001	271.2629	938.9102	-372.2295	105.2745	1284.4292	-124.9606	141.8405	1207.9247	-67.7627	156.8465	1373.7399	-23.3594
3	0.01	180.3783	1371.603	-233.4939	318.1169	1321.8639	-230.3195	166.0608	1337.2642	-95.244	198.6252	1372.2197	-80.0831	193.152	1393.3801	-119.4509	191.1372	1313.2014	-387.5377	225.8214	1307.1448	-425.144	249.0642	1348.1302	-400.539	385.5241	1130.8851	-217.5263	152.0279	1188.3816	-226.5255	271.3925	1474.3867	-76.8827	375.8993	1562.1368	-8.8814	318.7614	1577.6803	11.5267	343.2911	1742.011	29.9066	342.2758	1816.2181	15.1657	387.3845	1803.8629	35.8359	350.9583	1901.6815	19.8626	396.8169	1893.1923	33.0925	312.5778	1119.4304	-424.9426	261.5201	985.9335	-376.3097	255.3579	980.2368	-429.8021	301.266	834.6458	-467.6407	350.3136	767.2742	-475.9909	309.51	759.5287	-459.3896	359.4742	689.7521	-490.818	318.9373	683.811	-467.4838	348.2349	910.5612	-74.2365	162.9833	929.9746	-161.8064	357.998	892.6322	-331.6523	167.9246	922.7782	-263.1955	266.962	972.0209	-48.204	271.1592	938.9679	-372.1759	105.2977	1284.4578	-124.9852	141.904	1207.7675	-68.1049	156.8712	1373.7294	-23.3459
4	0.015	180.4224	1371.6198	-233.4979	318.1161	1321.8462	-230.3411	166.0697	1337.2916	-95.2518	198.6907	1372.2696	-80.1181	193.2016	1393.4202	-119.4456	191.1578	1313.1803	-387.5351	225.8095	1307.1571	-425.1353	249.0612	1348.1299	-400.5402	385.6258	1130.861	-217.5774	152.0384	1188.3989	-226.5131	271.3939	1474.3927	-76.8991	375.9068	1562.1615	-8.8888	318.7765	1577.7101	11.5063	343.2539	1742.0315	29.8928	342.2416	1816.2273	15.1471	387.3985	1803.8511	35.8014	350.803	1901.5645	19.884	396.7334	1893.1976	33.0954	312.6165	1119.3686	-424.9173	261.5492	985.9323	-376.2943	255.4059	980.2421	-429.7653	301.2841	834.6434	-467.6194	350.3363	767.2668	-475.9513	309.529	759.5336	-459.3152	359.6156	689.3987	-490.1288	318.9643	683.807	-467.4531	348.183	910.5773	-74.2543	162.9754	929.9695	-161.7945	358.0082	892.6233	-331.6588	167.9261	922.8016	-263.1907	267.0155	971.9929	-48.2259	271.1576	939.0068	-372.2378	105.3227	1284.4919	-124.9697	141.9508	1207.7656	-68.1134	156.9433	1373.7585	-23.3746
5	0.02	180.4565	1371.6328	-233.5216	318.1406	1321.8573	-230.3701	166.1181	1337.3226	-95.2778	198.7251	1372.3013	-80.1068	193.246	1393.4202	-119.4512	191.1526	1313.1973	-387.5359	225.7974	1307.158	-425.1567	249.0506	1348.1239	-400.5558	385.61	1130.8336	-217.5654	152.0555	1188.4076	-226.5205	271.4565	1474.3973	-76.9467	375.9431	1562.167	-8.9415	318.8021	1577.7106	11.513	343.2329	1742.0619	29.8847	342.1853	1816.2562	15.1644	387.3523	1803.9574	35.7922	350.7135	1901.5824	19.8818	396.6717	1893.2119	33.08	312.6163	1119.4199	-424.9007	261.5612	985.932	-376.2624	255.4209	980.2246	-429.732	301.3111	834.6353	-467.573	350.3764	767.2249	-475.9317	309.5791	759.5143	-459.2855	359.6232	689.6674	-490.7057	318.9974	683.7982	-467.3879	348.2335	910.6241	-74.2312	163.0024	929.9703	-161.7853	357.9856	892.6431	-331.6509	167.936	922.7688	-263.1695	266.9847	972.0247	-48.2406	271.1757	938.944	-372.1814	105.3431	1284.5209	-124.9901	141.9418	1208.0391	-67.848	156.994	1373.8171	-23.4125
6	0.025	180.4675	1371.6242	-233.4934	318.1422	1321.8387	-230.3599	166.1329	1337.3319	-95.2697	198.7962	1372.3545	-80.0854	193.3005	1393.42	-119.4669	191.1626	1313.1879	-387.5389	225.8075	1307.1608	-425.1655	249.0578	1348.1246	-400.5539	385.6257	1130.8265	-217.5864	152.0852	1188.4065	-226.5097	271.4741	1474.4099	-76.9748	375.9131	1562.2069	-8.9384	318.7911	1577.7277	11.4904	343.1968	1742.0869	29.8836	342.1335	1816.2865	15.167	387.3177	1803.9548	35.7768	350.774	1901.7024	19.8652	396.6079	1893.3339	33.1211	312.6693	1119.4211	-424.9211	261.5819	985.9252	-376.2584	255.4439	980.1929	-429.7238	301.3356	834.6466	-467.5395	350.3529	767.3036	-475.8518	309.5844	759.5235	-459.2563	359.5873	689.7902	-490.6541	319.0446	683.7858	-467.3158	348.268	910.5875	-74.217	162.9986	929.9883	-161.7932	357.9706	892.6164	-331.6315	167.9255	922.7605	-263.1646	267.0145	972.0236	-48.1963	271.0394	939.0492	-372.1877	105.3865	1284.5632	-125.0101	141.934	1207.7895	-68.1293	157.0803	1373.8461	-23.4043
7	0.03	180.5015	1371.6388	-233.4949	318.1729	1321.8306	-230.3799	166.1719	1337.3434	-95.2718	198.8438	1372.366	-80.1022	193.3469	1393.4092	-119.4833	191.152	1313.1925	-387.5488	225.811	1307.1539	-425.1714	249.0709	1348.124	-400.5714	385.615	1130.8031	-217.63	152.0924	1188.4155	-226.5211	271.4967	1474.4114	-76.9762	375.9507	1562.2666	-8.9923	318.7949	1577.7526	11.4777	343.1315	1742.124	29.8919	342.0708	1816.2877	15.1861	387.1899	1804.0283	35.8232	350.5297	1901.6655	19.8895	396.4913	1893.2981	33.1121	312.7154	1119.3331	-424.8902	261.6037	985.9188	-376.2373	255.4802	980.2135	-429.7086	301.3716	834.6107	-467.5052	350.4397	767.1849	-475.804	309.6103	759.5113	-459.2168	359.7805	689.6129	-490.6486	319.0774	683.7909	-467.2516	348.2428	910.5666	-74.2075	163.0058	929.9935	-161.7689	357.9651	892.5956	-331.6396	167.9263	922.7686	-263.1381	266.9595	972.051	-48.1993	271.131	938.9804	-372.14	105.4313	1284.5946	-125.0031	141.9588	1207.8259	-68.1441	157.131	1373.8917	-23.4173
8	0.035	180.5381	1371.6489	-233.493	318.185	1321.8109	-230.4084	166.2188	1337.3549	-95.2847	198.876	1372.3904	-80.1044	193.3838	1393.4045	-119.4976	191.1691	1313.1879	-387.5521	225.8063	1307.1486	-425.1796	249.0662	1348.1126	-400.5627	385.6153	1130.7976	-217.6013	152.1036	1188.412	-226.5086	271.499	1474.4263	-76.9878	375.9479	1562.3262	-9.0158	318.8057	1577.7743	11.454	343.0982	1742.1261	29.8883	341.9947	1816.3232	15.1829	387.1153	1804.0303	35.8273	350.4653	1901.6472	19.9316	396.3936	1893.3749	33.1151	312.7152	1119.3146	-424.8257	261.6215	985.9308	-376.2068	255.5001	980.1819	-429.686	301.3793	834.6076	-467.4816	350.4584	767.2749	-475.7523	309.6483	759.5322	-459.1784	359.776	689.4257	-489.9016	319.1118	683.7711	-467.2076	348.2815	910.587	-74.2418	163.0017	930.0153	-161.7723	357.9771	892.6248	-331.6429	167.9296	922.7872	-263.1491	267.0654	972.0386	-48.1917	271.1681	938.9561	-372.1172	105.4733	1284.6394	-125.0104	141.9673	1207.8156	-68.1575	157.2033	1373.9448	-23.4033
